<svg width="24" height="24" viewBox="0 0 24 24" fill="none" xmlns="http://www.w3.org/2000/svg">
<path d="M12.0001 18.275L7.85007 20.775C7.66674 20.8917 7.47507 20.9417 7.27507 20.925C7.07507 20.9083 6.90007 20.8417 6.75007 20.725C6.60007 20.6083 6.4834 20.4627 6.40007 20.288C6.31674 20.1127 6.30007 19.9167 6.35007 19.7L7.45007 14.975L3.77507 11.8C3.6084 11.65 3.5044 11.479 3.46307 11.287C3.42107 11.0957 3.4334 10.9083 3.50007 10.725C3.56674 10.5417 3.66674 10.3917 3.80007 10.275C3.9334 10.1583 4.11674 10.0833 4.35007 10.05L9.20007 9.625L11.0751 5.175C11.1584 4.975 11.2877 4.825 11.4631 4.725C11.6377 4.625 11.8167 4.575 12.0001 4.575C12.1834 4.575 12.3627 4.625 12.5381 4.725C12.7127 4.825 12.8417 4.975 12.9251 5.175L14.8001 9.625L19.6501 10.05C19.8834 10.0833 20.0667 10.1583 20.2001 10.275C20.3334 10.3917 20.4334 10.5417 20.5001 10.725C20.5667 10.9083 20.5794 11.0957 20.5381 11.287C20.4961 11.479 20.3917 11.65 20.2251 11.8L16.5501 14.975L17.6501 19.7C17.7001 19.9167 17.6834 20.1127 17.6001 20.288C17.5167 20.4627 17.4001 20.6083 17.2501 20.725C17.1001 20.8417 16.9251 20.9083 16.7251 20.925C16.5251 20.9417 16.3334 20.8917 16.1501 20.775L12.0001 18.275Z" fill="#FFD233"/>
</svg>