<svg width="20" height="20" viewBox="0 0 20 20" fill="none" xmlns="http://www.w3.org/2000/svg">
<g clip-path="url(#clip0_35_2470)">
<path d="M5 0C2.94434 0 1.25 1.69434 1.25 3.75V16.25C1.25 18.3057 2.94434 20 5 20H8.75C9.43848 20 10 19.4385 10 18.75C10 18.0615 9.43848 17.5 8.75 17.5H5C4.28711 17.5 3.75 16.9629 3.75 16.25V3.75C3.75 3.03711 4.28711 2.5 5 2.5H11.9824L16.25 6.76758V7.5C16.25 8.18848 16.8115 8.75 17.5 8.75C18.1885 8.75 18.75 8.18848 18.75 7.5V6.25C18.75 5.91797 18.6182 5.60059 18.3838 5.36621L13.3838 0.366211C13.1494 0.131836 12.832 0 12.5 0L5 0ZM13.75 10V13.75H10V16.25H13.75V20H16.25V16.25H20V13.75H16.25V10H13.75Z" fill="#053354" fill-opacity="0.3"/>
</g>
<defs>
<clipPath id="clip0_35_2470">
<rect width="20" height="20" fill="white"/>
</clipPath>
</defs>
</svg>